{
  "source": "C:\\Users\\Peter\\Desktop\\stuff\\MIUN\\quantitative_research\\video_compression\\videos\\BVI-HD\\BVI-HD_CDVL_videos\\ORIG\\Music_1920x1080_30fps.mp4",
  "output": "C:\\Users\\Peter\\Desktop\\stuff\\MIUN\\quantitative_research\\video_compression\\compressed_videos\\BVI-HD\\av1\\2\\Music_1920x1080_30fps_av1.mkv",
  "codec": "av1",
  "ok": "Input #0, mov,mp4,m4a,3gp,3g2,mj2, from 'C:\\Users\\Peter\\Desktop\\stuff\\MIUN\\quantitative_research\\video_compression\\videos\\BVI-HD\\BVI-HD_CDVL_videos\\ORIG\\Music_1920x1080_30fps.mp4':\n  Metadata:\n    major_brand     : isom\n    minor_version   : 512\n    compatible_brands: isomiso2avc1mp41\n    encoder         : Lavf54.28.101\n  Duration: 00:00:05.00, start: 0.000000, bitrate: 192710 kb/s\n  Stream #0:0[0x1](und): Video: h264 (High 4:4:4 Predictive) (avc1 / 0x31637661), yuv420p(progressive), 1920x1080, 192707 kb/s, 30 fps, 30 tbr, 30 tbn (default)\n    Metadata:\n      handler_name    : VideoHandler\n      vendor_id       : [0][0][0][0]\n[out#0/matroska @ 000002d9bc318f40] Codec AVOption b:a (set bitrate (in bits/s)) has not been used for any stream. The most likely reason is either wrong type (e.g. a video option with no video streams) or that it is a private option of some decoder which was not actually used for any stream.\nStream mapping:\n  Stream #0:0 -> #0:0 (h264 (native) -> av1 (libsvtav1))\nPress [q] to stop, [?] for help\nSvt[info]: -------------------------------------------\nSvt[info]: SVT [version]:\tSVT-AV1 Encoder Lib v3.1.0-19-g6ecfe8ec\nSvt[info]: SVT [build]  :\tGCC 15.2.0\t 64 bit\nSvt[info]: LIB Build date: Aug 17 2025 11:37:13\nSvt[info]: -------------------------------------------\nSvt[info]: Level of Parallelism: 5\nSvt[info]: Number of PPCS 93\nSvt[info]: [asm level on system : up to avx2]\nSvt[info]: [asm level selected : up to avx2]\nSvt[info]: -------------------------------------------\nSvt[info]: SVT [config]: main profile\ttier (auto)\tlevel (auto)\nSvt[info]: SVT [config]: width / height / fps numerator / fps denominator \t\t: 1920 / 1080 / 30 / 1\nSvt[info]: SVT [config]: bit-depth / color format \t\t\t\t\t: 8 / YUV420\nSvt[info]: SVT [config]: preset / tune / pred struct \t\t\t\t\t: 4 / PSNR / random access\nSvt[info]: SVT [config]: gop size / mini-gop size / key-frame type \t\t\t: 161 / 16 / key frame\nSvt[info]: SVT [config]: BRC mode / target bitrate (kbps)\t\t\t\t: VBR / 2000 \nSvt[info]: SVT [config]: AQ mode / Variance Boost \t\t\t\t\t: 2 / 0\nSvt[info]: SVT [config]: sharpness / luminance-based QP bias \t\t\t\t: 0 / 0\nSvt[info]: SVT [config]: QP scale compress strength \t\t\t\t\t: 0\nSvt[info]: -------------------------------------------\nOutput #0, matroska, to 'C:\\Users\\Peter\\Desktop\\stuff\\MIUN\\quantitative_research\\video_compression\\compressed_videos\\BVI-HD\\av1\\2\\Music_1920x1080_30fps_av1.mkv':\n  Metadata:\n    major_brand     : isom\n    minor_version   : 512\n    compatible_brands: isomiso2avc1mp41\n    encoder         : Lavf62.3.100\n  Stream #0:0(und): Video: av1 (AV01 / 0x31305641), yuv420p(tv, progressive), 1920x1080, q=2-31, 2000 kb/s, 30 fps, 1k tbn (default)\n    Metadata:\n      encoder         : Lavc62.11.100 libsvtav1\n      handler_name    : VideoHandler\n      vendor_id       : [0][0][0][0]\n    Side data:\n      cpb: bitrate max/min/avg: 0/0/2000000 buffer size: 2000000 vbv_delay: N/A\nframe=    0 fps=0.0 q=0.0 size=       0KiB time=N/A bitrate=N/A speed=N/A elapsed=0:00:01.02    \nframe=    0 fps=0.0 q=0.0 size=       0KiB time=N/A bitrate=N/A speed=N/A elapsed=0:00:01.56    \nframe=    0 fps=0.0 q=0.0 size=       0KiB time=N/A bitrate=N/A speed=N/A elapsed=0:00:02.09    \nframe=    1 fps=0.4 q=24.0 size=       1KiB time=00:00:00.00 bitrate=N/A speed=   0x elapsed=0:00:02.63    \nframe=    4 fps=1.3 q=40.0 size=       1KiB time=00:00:00.10 bitrate=  57.0kbits/s speed=0.0314x elapsed=0:00:03.18    \nframe=    8 fps=2.2 q=37.0 size=       1KiB time=00:00:00.23 bitrate=  24.4kbits/s speed=0.0628x elapsed=0:00:03.71    \nframe=   10 fps=2.4 q=35.0 size=       1KiB time=00:00:00.30 bitrate=  19.0kbits/s speed=0.0709x elapsed=0:00:04.22    \nframe=   14 fps=2.9 q=34.0 size=       1KiB time=00:00:00.43 bitrate=  13.2kbits/s speed=0.0907x elapsed=0:00:04.77    \nframe=   20 fps=3.8 q=33.0 size=       1KiB time=00:00:00.60 bitrate=   9.5kbits/s speed=0.113x elapsed=0:00:05.30    \nframe=   23 fps=3.9 q=34.0 size=       1KiB time=00:00:00.73 bitrate=   7.8kbits/s speed=0.125x elapsed=0:00:05.85    \nframe=   25 fps=3.9 q=33.0 size=       1KiB time=00:00:00.80 bitrate=   7.1kbits/s speed=0.125x elapsed=0:00:06.41    \nframe=   29 fps=4.2 q=33.0 size=       1KiB time=00:00:00.93 bitrate=   6.1kbits/s speed=0.134x elapsed=0:00:06.95    \nframe=   35 fps=4.7 q=36.0 size=       1KiB time=00:00:01.13 bitrate=   5.0kbits/s speed=0.151x elapsed=0:00:07.49    \nframe=   38 fps=4.7 q=39.0 size=       1KiB time=00:00:01.23 bitrate=   4.6kbits/s speed=0.154x elapsed=0:00:08.01    \nframe=   39 fps=4.6 q=33.0 size=       1KiB time=00:00:01.26 bitrate=   4.5kbits/s speed=0.149x elapsed=0:00:08.52    \nframe=   44 fps=4.9 q=39.0 size=       1KiB time=00:00:01.43 bitrate=   4.0kbits/s speed=0.158x elapsed=0:00:09.06    \nframe=   49 fps=5.1 q=15.0 size=       1KiB time=00:00:01.60 bitrate=   3.6kbits/s speed=0.167x elapsed=0:00:09.60    \nframe=   55 fps=5.4 q=33.0 size=       1KiB time=00:00:01.70 bitrate=   3.4kbits/s speed=0.168x elapsed=0:00:10.13    \nframe=   57 fps=5.3 q=28.0 size=       1KiB time=00:00:01.86 bitrate=   3.1kbits/s speed=0.175x elapsed=0:00:10.66    \nframe=   61 fps=5.5 q=32.0 size=       1KiB time=00:00:02.00 bitrate=   2.9kbits/s speed=0.179x elapsed=0:00:11.18    \nframe=   65 fps=5.5 q=15.0 size=       1KiB time=00:00:02.13 bitrate=   2.7kbits/s speed=0.182x elapsed=0:00:11.71    \nframe=   69 fps=5.6 q=34.0 size=       1KiB time=00:00:02.26 bitrate=   2.5kbits/s speed=0.185x elapsed=0:00:12.22    \nframe=   73 fps=5.7 q=28.0 size=       1KiB time=00:00:02.40 bitrate=   2.4kbits/s speed=0.188x elapsed=0:00:12.74    \nframe=   73 fps=5.5 q=28.0 size=       1KiB time=00:00:02.40 bitrate=   2.4kbits/s speed=0.181x elapsed=0:00:13.26    \nframe=   77 fps=5.6 q=33.0 size=       1KiB time=00:00:02.53 bitrate=   2.3kbits/s speed=0.184x elapsed=0:00:13.77    \nframe=   83 fps=5.8 q=36.0 size=       1KiB time=00:00:02.73 bitrate=   2.1kbits/s speed=0.191x elapsed=0:00:14.29    \nframe=   87 fps=5.9 q=36.0 size=       1KiB time=00:00:02.86 bitrate=   2.0kbits/s speed=0.194x elapsed=0:00:14.81    \nframe=   89 fps=5.8 q=29.0 size=       1KiB time=00:00:02.93 bitrate=   1.9kbits/s speed=0.191x elapsed=0:00:15.33    \nframe=   93 fps=5.9 q=33.0 size=       1KiB time=00:00:03.06 bitrate=   1.9kbits/s speed=0.194x elapsed=0:00:15.84    \nframe=   97 fps=5.9 q=20.0 size=       1KiB time=00:00:03.20 bitrate=   1.8kbits/s speed=0.195x elapsed=0:00:16.38    \nframe=  103 fps=6.1 q=38.0 size=       1KiB time=00:00:03.40 bitrate=   1.7kbits/s speed=0.201x elapsed=0:00:16.91    \nframe=  105 fps=6.0 q=30.0 size=       1KiB time=00:00:03.46 bitrate=   1.6kbits/s speed=0.199x elapsed=0:00:17.42    \nframe=  109 fps=6.1 q=33.0 size=       1KiB time=00:00:03.60 bitrate=   1.6kbits/s speed=0.201x elapsed=0:00:17.94    \nframe=  113 fps=6.1 q=22.0 size=       1KiB time=00:00:03.73 bitrate=   1.5kbits/s speed=0.202x elapsed=0:00:18.46    \nframe=  119 fps=6.3 q=39.0 size=       1KiB time=00:00:03.93 bitrate=   1.5kbits/s speed=0.207x elapsed=0:00:18.99    \nframe=  123 fps=6.3 q=41.0 size=       1KiB time=00:00:04.06 bitrate=   1.4kbits/s speed=0.208x elapsed=0:00:19.50    \nframe=  129 fps=6.4 q=25.0 size=       1KiB time=00:00:04.26 bitrate=   1.3kbits/s speed=0.213x elapsed=0:00:20.04    \nframe=  133 fps=6.5 q=42.0 size=       1KiB time=00:00:04.40 bitrate=   1.3kbits/s speed=0.214x elapsed=0:00:20.55    \nframe=  139 fps=6.6 q=42.0 size=       1KiB time=00:00:04.60 bitrate=   1.2kbits/s speed=0.218x elapsed=0:00:21.07    \n[out#0/matroska @ 000002d9bc318f40] video:1137KiB audio:0KiB subtitle:0KiB other streams:0KiB global headers:0KiB muxing overhead: 0.124605%\nframe=  150 fps=7.0 q=42.0 Lsize=    1139KiB time=00:00:04.96 bitrate=1878.0kbits/s speed=0.232x elapsed=0:00:21.45    \n",
  "seconds": 21.98534393310547,
  "probe_out": {}
}